<?xml version="1.0" encoding="UTF-8" standalone="no"?>
<!-- Created with Inkscape (http://www.inkscape.org/) -->

<svg
   width="1664"
   height="256"
   viewBox="0 0 440.26666 67.733333"
   version="1.1"
   id="svg1"
   inkscape:version="1.3 (0e150ed6c4, 2023-07-21)"
   sodipodi:docname="Logo.svg"
   inkscape:export-filename="Logo.png"
   inkscape:export-xdpi="96"
   inkscape:export-ydpi="96"
   xmlns:inkscape="http://www.inkscape.org/namespaces/inkscape"
   xmlns:sodipodi="http://sodipodi.sourceforge.net/DTD/sodipodi-0.dtd"
   xmlns:xlink="http://www.w3.org/1999/xlink"
   xmlns="http://www.w3.org/2000/svg"
   xmlns:svg="http://www.w3.org/2000/svg">
  <sodipodi:namedview
     id="namedview1"
     pagecolor="#333333"
     bordercolor="#000000"
     borderopacity="0.25"
     inkscape:showpageshadow="2"
     inkscape:pageopacity="0.0"
     inkscape:pagecheckerboard="0"
     inkscape:deskcolor="#1a1a1a"
     inkscape:document-units="px"
     showgrid="true"
     inkscape:zoom="0.4999466"
     inkscape:cx="889.09495"
     inkscape:cy="142.01517"
     inkscape:window-width="1920"
     inkscape:window-height="980"
     inkscape:window-x="0"
     inkscape:window-y="50"
     inkscape:window-maximized="1"
     inkscape:current-layer="g17">
    <inkscape:grid
       id="grid1"
       units="px"
       originx="0"
       originy="0"
       spacingx="4.2333333"
       spacingy="4.2333333"
       empcolor="#ffffff"
       empopacity="0.2"
       color="#ffffff"
       opacity="0.05098039"
       empspacing="4"
       dotted="false"
       gridanglex="30"
       gridanglez="30"
       visible="true" />
  </sodipodi:namedview>
  <defs
     id="defs1">
    <linearGradient
       inkscape:collect="always"
       xlink:href="#linearGradient11"
       id="linearGradient12"
       x1="143.93332"
       y1="33.866665"
       x2="397.93332"
       y2="33.866665"
       gradientUnits="userSpaceOnUse"
       gradientTransform="translate(-50.799827,-2.776433e-4)" />
    <linearGradient
       id="linearGradient11"
       inkscape:collect="always">
      <stop
         style="stop-color:#ffbf40;stop-opacity:1;"
         offset="0"
         id="stop11" />
      <stop
         style="stop-color:#40beff;stop-opacity:1;"
         offset="1"
         id="stop12" />
    </linearGradient>
    <filter
       inkscape:collect="always"
       style="color-interpolation-filters:sRGB"
       id="filter17"
       x="-0.47464019"
       y="-0.15821338"
       width="1.9492753"
       height="1.3164268">
      <feGaussianBlur
         inkscape:collect="always"
         stdDeviation="1.58496"
         id="feGaussianBlur17" />
    </filter>
    <filter
       inkscape:collect="always"
       style="color-interpolation-filters:sRGB"
       id="filter18"
       x="-0.47464047"
       y="-0.15821338"
       width="1.9492759"
       height="1.3164268">
      <feGaussianBlur
         inkscape:collect="always"
         stdDeviation="1.58496"
         id="feGaussianBlur18" />
    </filter>
    <filter
       inkscape:collect="always"
       style="color-interpolation-filters:sRGB"
       id="filter19"
       x="-0.47463507"
       y="-0.15821337"
       width="1.9492752"
       height="1.3164267">
      <feGaussianBlur
         inkscape:collect="always"
         stdDeviation="1.58496"
         id="feGaussianBlur19" />
    </filter>
    <filter
       inkscape:collect="always"
       style="color-interpolation-filters:sRGB"
       id="filter20"
       x="-0.47463521"
       y="-0.15821337"
       width="1.9492755"
       height="1.3164267">
      <feGaussianBlur
         inkscape:collect="always"
         stdDeviation="1.58496"
         id="feGaussianBlur20" />
    </filter>
    <filter
       inkscape:collect="always"
       style="color-interpolation-filters:sRGB"
       id="filter21"
       x="-0.041529416"
       y="-0.35300821"
       width="1.0830598"
       height="1.7060083">
      <feGaussianBlur
         inkscape:collect="always"
         stdDeviation="3.2173334"
         id="feGaussianBlur21" />
    </filter>
  </defs>
  <g
     inkscape:label="Main"
     inkscape:groupmode="layer"
     id="layer1">
    <path
       id="path8"
       style="fill:none;stroke:url(#linearGradient12);stroke-width:8.46667;stroke-linecap:round;stroke-linejoin:round;stroke-dasharray:none;stroke-opacity:1"
       d="M 347.13334,33.866665 V 50.799998 M 330.2,16.933333 v 16.933332 c 0,0 16.93334,0 25.4,0 8.46667,0 8.46667,-8.466666 8.46667,-8.466666 v -8.466666 m -84.66668,16.933332 h 33.86668 M 279.39999,50.799998 V 25.399999 c 0,0 0,-8.466666 8.46667,-8.466666 8.46667,0 25.40001,0 25.40001,0 V 50.799998 M 228.6,16.933333 v 33.866665 h 33.86666 m -84.66666,0 V 16.933333 h 25.4 c 0,0 8.46666,0 8.46666,8.466666 0,8.466666 -8.46666,8.466666 -8.46666,8.466666 H 177.8 M 160.86667,16.933333 H 127 V 33.866665 H 160.86667 127 v 16.933333 h 33.86667 m -84.666677,0 V 16.933333 H 101.6 c 0,0 8.46667,0 8.46667,8.466666 0,8.466666 -8.46667,8.466666 -8.46667,8.466666 H 76.199993 93.133337 l 16.933333,16.933333" />
    <path
       style="fill:none;stroke:#ff4040;stroke-width:8.46667;stroke-linecap:round;stroke-linejoin:round;stroke-dasharray:none;stroke-opacity:1"
       d="M 33.86666,8.4666662 16.933332,33.866665 33.86666,59.266663"
       id="path9"
       sodipodi:nodetypes="ccc" />
    <path
       style="fill:none;stroke:#ff8080;stroke-width:8.46667;stroke-linecap:round;stroke-linejoin:round;stroke-dasharray:none;stroke-opacity:1"
       d="M 50.799998,8.4666662 33.866665,33.866665 50.799998,59.266663"
       id="path10"
       sodipodi:nodetypes="ccc" />
    <path
       style="fill:none;stroke:#40ff40;stroke-width:8.46667;stroke-linecap:round;stroke-linejoin:round;stroke-dasharray:none;stroke-opacity:1"
       d="M 406.39999,59.266663 423.33331,33.866665 406.39999,8.4666662"
       id="path9-5"
       sodipodi:nodetypes="ccc" />
    <path
       style="fill:none;stroke:#80ff80;stroke-width:8.46667;stroke-linecap:round;stroke-linejoin:round;stroke-dasharray:none;stroke-opacity:1"
       d="M 389.46665,59.266663 406.39998,33.866665 389.46665,8.4666662"
       id="path10-3"
       sodipodi:nodetypes="ccc" />
  </g>
  <g
     inkscape:label="Glow"
     inkscape:groupmode="layer"
     id="g17"
     style="mix-blend-mode:overlay;opacity:1">
    <path
       id="path13"
       style="fill:none;stroke:url(#linearGradient12);stroke-width:8.46667;stroke-linecap:round;stroke-linejoin:round;stroke-dasharray:none;stroke-opacity:1;filter:url(#filter21);opacity:0.5"
       d="M 347.13334,33.866665 V 50.799998 M 330.2,16.933333 v 16.933332 c 0,0 16.93334,0 25.4,0 8.46667,0 8.46667,-8.466666 8.46667,-8.466666 v -8.466666 m -84.66668,16.933332 h 33.86668 M 279.39999,50.799998 V 25.399999 c 0,0 0,-8.466666 8.46667,-8.466666 8.46667,0 25.40001,0 25.40001,0 V 50.799998 M 228.6,16.933333 v 33.866665 h 33.86666 m -84.66666,0 V 16.933333 h 25.4 c 0,0 8.46666,0 8.46666,8.466666 0,8.466666 -8.46666,8.466666 -8.46666,8.466666 H 177.8 M 160.86667,16.933333 H 127 V 33.866665 H 160.86667 127 v 16.933333 h 33.86667 m -84.666677,0 V 16.933333 H 101.6 c 0,0 8.46667,0 8.46667,8.466666 0,8.466666 -8.46667,8.466666 -8.46667,8.466666 H 76.199993 93.133337 l 16.933333,16.933333" />
    <path
       style="fill:none;stroke:#ff4040;stroke-width:8.46667;stroke-linecap:round;stroke-linejoin:round;stroke-dasharray:none;stroke-opacity:1;filter:url(#filter20)"
       d="M 33.86666,8.4666662 16.933332,33.866665 33.86666,59.266663"
       id="path14"
       sodipodi:nodetypes="ccc" />
    <path
       style="fill:none;stroke:#ff8080;stroke-width:8.46667;stroke-linecap:round;stroke-linejoin:round;stroke-dasharray:none;stroke-opacity:1;filter:url(#filter19)"
       d="M 50.799998,8.4666662 33.866665,33.866665 50.799998,59.266663"
       id="path15"
       sodipodi:nodetypes="ccc" />
    <path
       style="fill:none;stroke:#40ff40;stroke-width:8.46667;stroke-linecap:round;stroke-linejoin:round;stroke-dasharray:none;stroke-opacity:1;filter:url(#filter18)"
       d="M 406.39999,59.266663 423.33331,33.866665 406.39999,8.4666662"
       id="path16"
       sodipodi:nodetypes="ccc" />
    <path
       style="fill:none;stroke:#80ff80;stroke-width:8.46667;stroke-linecap:round;stroke-linejoin:round;stroke-dasharray:none;stroke-opacity:1;filter:url(#filter17)"
       d="M 389.46665,59.266663 406.39998,33.866665 389.46665,8.4666662"
       id="path17"
       sodipodi:nodetypes="ccc" />
  </g>
</svg>
