<?xml version="1.0" encoding="UTF-8" standalone="no"?>
<!-- Created with Inkscape (http://www.inkscape.org/) -->

<svg
   width="256"
   height="256"
   viewBox="0 0 67.733332 67.733333"
   version="1.1"
   id="svg1"
   inkscape:version="1.3 (0e150ed6c4, 2023-07-21)"
   sodipodi:docname="Player.svg"
   inkscape:export-filename="Player.png"
   inkscape:export-xdpi="96"
   inkscape:export-ydpi="96"
   xml:space="preserve"
   xmlns:inkscape="http://www.inkscape.org/namespaces/inkscape"
   xmlns:sodipodi="http://sodipodi.sourceforge.net/DTD/sodipodi-0.dtd"
   xmlns="http://www.w3.org/2000/svg"
   xmlns:svg="http://www.w3.org/2000/svg"><sodipodi:namedview
     id="namedview1"
     pagecolor="#333333"
     bordercolor="#000000"
     borderopacity="0.25"
     inkscape:showpageshadow="2"
     inkscape:pageopacity="0.0"
     inkscape:pagecheckerboard="0"
     inkscape:deskcolor="#1a1a1a"
     inkscape:document-units="px"
     showgrid="true"
     inkscape:zoom="2.828125"
     inkscape:cx="112.26519"
     inkscape:cy="125.87845"
     inkscape:window-width="1920"
     inkscape:window-height="980"
     inkscape:window-x="0"
     inkscape:window-y="50"
     inkscape:window-maximized="1"
     inkscape:current-layer="layer1"><inkscape:grid
       id="grid1"
       units="px"
       originx="0"
       originy="0"
       spacingx="1.0583333"
       spacingy="1.0583333"
       empcolor="#ffffff"
       empopacity="0.2"
       color="#ffffff"
       opacity="0.05098039"
       empspacing="16"
       dotted="false"
       gridanglex="30"
       gridanglez="30"
       visible="true" /></sodipodi:namedview><defs
     id="defs1" /><g
     inkscape:label="Layer 1"
     inkscape:groupmode="layer"
     id="layer1"><circle
       style="fill:#4d4d4d;fill-opacity:1;stroke:#666666;stroke-width:2.11667;stroke-linecap:round;stroke-dasharray:none;stroke-opacity:1"
       id="path8"
       cx="33.866665"
       cy="33.866665"
       r="20.108332" /><path
       id="rect1"
       style="fill:#808080;fill-opacity:1;stroke:none;stroke-width:0.499999"
       d="M 0 0 L 0 16.933333 L 2.1166666 16.933333 L 2.1166666 2.1166666 L 16.933333 2.1166666 L 16.933333 0 L 0 0 z M 50.799999 0 L 50.799999 2.1166666 L 65.616666 2.1166666 L 65.616666 16.933333 L 67.733332 16.933333 L 67.733332 0 L 50.799999 0 z M 0 50.799999 L 0 67.733332 L 16.933333 67.733332 L 16.933333 65.616666 L 2.1166666 65.616666 L 2.1166666 50.799999 L 0 50.799999 z M 65.616666 50.799999 L 65.616666 65.616666 L 50.799999 65.616666 L 50.799999 67.733332 L 67.733332 67.733332 L 67.733332 50.799999 L 65.616666 50.799999 z " /><path
       id="path1"
       style="fill:#ffffff;stroke-width:0.499999;fill-opacity:1"
       d="M 33.866666 4.2333333 A 29.633333 29.633331 0 0 0 4.2333333 33.866666 A 29.633333 29.633331 0 0 0 33.866666 63.499999 A 29.633333 29.633331 0 0 0 63.499999 33.866666 A 29.633333 29.633331 0 0 0 33.866666 4.2333333 z M 33.866666 8.4666666 A 8.4666662 8.4666662 0 0 1 42.333333 16.933333 A 8.4666662 8.4666662 0 0 1 33.866666 25.4 A 8.4666662 8.4666662 0 0 1 25.4 16.933333 A 8.4666662 8.4666662 0 0 1 33.866666 8.4666666 z M 16.933333 25.4 A 8.4666662 8.4666662 0 0 1 25.4 33.866666 A 8.4666662 8.4666662 0 0 1 16.933333 42.333333 A 8.4666662 8.4666662 0 0 1 8.4666666 33.866666 A 8.4666662 8.4666662 0 0 1 16.933333 25.4 z M 50.799999 25.4 A 8.4666662 8.4666662 0 0 1 59.266666 33.866666 A 8.4666662 8.4666662 0 0 1 50.799999 42.333333 A 8.4666662 8.4666662 0 0 1 42.333333 33.866666 A 8.4666662 8.4666662 0 0 1 50.799999 25.4 z M 33.866666 42.333333 A 8.4666662 8.4666662 0 0 1 42.333333 50.799999 A 8.4666662 8.4666662 0 0 1 33.866666 59.266666 A 8.4666662 8.4666662 0 0 1 25.4 50.799999 A 8.4666662 8.4666662 0 0 1 33.866666 42.333333 z " /><path
       id="path2"
       style="color:#000000;fill:#cccccc;stroke-linecap:round;-inkscape-stroke:none;fill-opacity:1"
       d="M 14.81615 13.75885 A 1.0583333 1.0583333 0 0 0 14.068392 14.068392 A 1.0583333 1.0583333 0 0 0 14.068392 15.564424 L 26.767358 28.265458 A 1.0583333 1.0583333 0 0 0 28.265458 28.265458 A 1.0583333 1.0583333 0 0 0 28.265458 26.767358 L 15.564424 14.068392 A 1.0583333 1.0583333 0 0 0 14.81615 13.75885 z M 52.916149 13.75885 A 1.0583349 1.0583349 0 0 0 52.167875 14.068392 L 39.468908 26.767358 A 1.0583349 1.0583349 0 0 0 39.468908 28.265458 A 1.0583349 1.0583349 0 0 0 40.964941 28.265458 L 53.663907 15.564424 A 1.0583349 1.0583349 0 0 0 53.663907 14.068392 A 1.0583349 1.0583349 0 0 0 52.916149 13.75885 z M 27.5177 39.158333 A 1.0583349 1.0583349 0 0 0 26.767358 39.468908 L 14.068392 52.167875 A 1.0583349 1.0583349 0 0 0 14.068392 53.663907 A 1.0583349 1.0583349 0 0 0 15.564424 53.663907 L 28.265458 40.964941 A 1.0583349 1.0583349 0 0 0 28.265458 39.468908 A 1.0583349 1.0583349 0 0 0 27.5177 39.158333 z M 40.216666 39.15885 A 1.0583349 1.0583349 0 0 0 39.468908 39.468908 A 1.0583349 1.0583349 0 0 0 39.468908 40.964941 L 52.167875 53.663907 A 1.0583349 1.0583349 0 0 0 53.663907 53.663907 A 1.0583349 1.0583349 0 0 0 53.663907 52.167875 L 40.964941 39.468908 A 1.0583349 1.0583349 0 0 0 40.216666 39.15885 z " /><ellipse
       style="fill:#4d4d4d;fill-opacity:1;stroke:#cccccc;stroke-width:2.11666664;stroke-linecap:round;stroke-dasharray:none;stroke-opacity:1"
       id="path7"
       cx="33.866665"
       cy="33.866665"
       rx="3.1749997"
       ry="3.175" /></g></svg>
