<?xml version="1.0" encoding="UTF-8" standalone="no"?>
<!-- Created with Inkscape (http://www.inkscape.org/) -->

<svg
   width="256"
   height="256"
   viewBox="0 0 67.733332 67.733333"
   version="1.1"
   id="svg1"
   inkscape:version="1.3 (0e150ed6c4, 2023-07-21)"
   sodipodi:docname="Star.svg"
   inkscape:export-filename="Star.png"
   inkscape:export-xdpi="96"
   inkscape:export-ydpi="96"
   xmlns:inkscape="http://www.inkscape.org/namespaces/inkscape"
   xmlns:sodipodi="http://sodipodi.sourceforge.net/DTD/sodipodi-0.dtd"
   xmlns="http://www.w3.org/2000/svg"
   xmlns:svg="http://www.w3.org/2000/svg">
  <sodipodi:namedview
     id="namedview1"
     pagecolor="#333333"
     bordercolor="#000000"
     borderopacity="0.25"
     inkscape:showpageshadow="2"
     inkscape:pageopacity="0.0"
     inkscape:pagecheckerboard="0"
     inkscape:deskcolor="#1a1a1a"
     inkscape:document-units="px"
     showgrid="true"
     inkscape:zoom="1.9997864"
     inkscape:cx="78.758411"
     inkscape:cy="135.01442"
     inkscape:window-width="1920"
     inkscape:window-height="980"
     inkscape:window-x="0"
     inkscape:window-y="50"
     inkscape:window-maximized="1"
     inkscape:current-layer="layer1">
    <inkscape:grid
       id="grid1"
       units="px"
       originx="0"
       originy="0"
       spacingx="1.0583333"
       spacingy="1.0583333"
       empcolor="#ffffff"
       empopacity="0.2"
       color="#ffffff"
       opacity="0.05098039"
       empspacing="16"
       dotted="false"
       gridanglex="30"
       gridanglez="30"
       visible="true" />
  </sodipodi:namedview>
  <defs
     id="defs1" />
  <g
     inkscape:label="Layer 1"
     inkscape:groupmode="layer"
     id="layer1">
    <path
       id="rect1"
       style="fill:#808080;fill-opacity:1;stroke:none;stroke-width:0.499999"
       d="M 0 0 L 0 16.933333 L 2.1166666 16.933333 L 2.1166666 2.1166666 L 16.933333 2.1166666 L 16.933333 0 L 0 0 z M 50.799999 0 L 50.799999 2.1166666 L 65.616666 2.1166666 L 65.616666 16.933333 L 67.733332 16.933333 L 67.733332 0 L 50.799999 0 z M 0 50.799999 L 0 67.733332 L 16.933333 67.733332 L 16.933333 65.616666 L 2.1166666 65.616666 L 2.1166666 50.799999 L 0 50.799999 z M 65.616666 50.799999 L 65.616666 65.616666 L 50.799999 65.616666 L 50.799999 67.733332 L 67.733332 67.733332 L 67.733332 50.799999 L 65.616666 50.799999 z " />
    <path
       sodipodi:type="star"
       style="fill:#4d4d4d;stroke:#ffffff;stroke-width:2.11667;stroke-linecap:round;fill-opacity:1;stroke-opacity:1"
       id="path1"
       inkscape:flatsided="false"
       sodipodi:sides="6"
       sodipodi:cx="33.866665"
       sodipodi:cy="33.866665"
       sodipodi:r1="26.458332"
       sodipodi:r2="22.913588"
       sodipodi:arg1="0"
       sodipodi:arg2="0.52359878"
       inkscape:rounded="0"
       inkscape:randomized="0"
       d="m 60.324997,33.866665 -6.614583,11.456794 -6.614583,11.456794 -13.229166,-1e-6 -13.229166,1e-6 -6.614583,-11.456794 -6.6145832,-11.456794 6.6145832,-11.456794 6.614583,-11.456794 13.229166,0 13.229166,0 6.614583,11.456794 z" />
    <path
       sodipodi:type="star"
       style="fill:#999999;stroke:#ffffff;stroke-width:2.11667;stroke-linecap:round;stroke-opacity:1;fill-opacity:1"
       id="path2"
       inkscape:flatsided="false"
       sodipodi:sides="6"
       sodipodi:cx="33.866665"
       sodipodi:cy="33.866665"
       sodipodi:r1="29.633331"
       sodipodi:r2="14.816665"
       sodipodi:arg1="-1.5707963"
       sodipodi:arg2="-1.0471976"
       inkscape:rounded="0"
       inkscape:randomized="0"
       d="M 33.866666,4.2333336 41.274997,21.035056 59.529883,19.05 48.68333,33.866664 59.529882,48.683331 41.274998,46.698273 33.866664,63.499996 26.458333,46.698273 8.2034468,48.68333 19.05,33.866666 8.2034476,19.049999 26.458332,21.035057 Z" />
  </g>
</svg>
