<?xml version="1.0" encoding="UTF-8" standalone="no"?>
<!-- Created with Inkscape (http://www.inkscape.org/) -->

<svg
   width="512"
   height="128"
   viewBox="0 0 135.46666 33.866667"
   version="1.1"
   id="svg1"
   inkscape:version="1.3 (0e150ed6c4, 2023-07-21)"
   sodipodi:docname="Trail.svg"
   inkscape:export-filename="Trail.png"
   inkscape:export-xdpi="96"
   inkscape:export-ydpi="96"
   xml:space="preserve"
   xmlns:inkscape="http://www.inkscape.org/namespaces/inkscape"
   xmlns:sodipodi="http://sodipodi.sourceforge.net/DTD/sodipodi-0.dtd"
   xmlns="http://www.w3.org/2000/svg"
   xmlns:svg="http://www.w3.org/2000/svg"><sodipodi:namedview
     id="namedview1"
     pagecolor="#333333"
     bordercolor="#000000"
     borderopacity="0.25"
     inkscape:showpageshadow="2"
     inkscape:pageopacity="0.0"
     inkscape:pagecheckerboard="0"
     inkscape:deskcolor="#1a1a1a"
     inkscape:document-units="px"
     showgrid="true"
     inkscape:zoom="1.9997864"
     inkscape:cx="252.27694"
     inkscape:cy="67.007156"
     inkscape:window-width="1920"
     inkscape:window-height="980"
     inkscape:window-x="0"
     inkscape:window-y="50"
     inkscape:window-maximized="1"
     inkscape:current-layer="layer1"><inkscape:grid
       id="grid1"
       units="px"
       originx="0"
       originy="0"
       spacingx="1.0583333"
       spacingy="1.0583333"
       empcolor="#ffffff"
       empopacity="0.2"
       color="#ffffff"
       opacity="0.05098039"
       empspacing="16"
       dotted="false"
       gridanglex="30"
       gridanglez="30"
       visible="true" /></sodipodi:namedview><defs
     id="defs1" /><g
     inkscape:label="Layer 1"
     inkscape:groupmode="layer"
     id="layer1"><path
       id="rect1"
       style="fill:#ffffff;fill-opacity:1;stroke:none;stroke-width:2.11667;stroke-linecap:round"
       d="M 0,0 V 33.866666 H 33.866666 V 0 Z M 1.0583333,2.116667 H 3.175 v 3.175 H 1.0583333 Z m 4.2333333,0 h 2.1166666 v 3.175 H 5.2916666 Z m 4.2333333,0 h 2.1166671 v 3.175 H 9.5249999 Z m 4.2333331,0 H 15.875 v 3.175 h -2.116667 z m 4.233333,0 h 2.116667 v 3.175 h -2.116667 z m 4.233334,0 h 2.116666 v 3.175 H 22.225 Z m 4.233333,0 H 28.575 v 3.175 h -2.116667 z m 4.233333,0 h 2.116667 v 3.175 H 30.691666 Z M 1.0583333,7.408333 H 32.808333 v 19.05 H 1.0583333 Z m 0,21.166667 H 3.175 V 31.75 H 1.0583333 Z m 4.2333333,0 H 7.4083332 V 31.75 H 5.2916666 Z m 4.2333333,0 H 11.641667 V 31.75 H 9.5249999 Z m 4.2333331,0 H 15.875 v 3.175 h -2.116667 z m 4.233333,0 h 2.116667 v 3.175 h -2.116667 z m 4.233334,0 h 2.116666 V 31.75 H 22.225 Z m 4.233333,0 H 28.575 v 3.175 h -2.116667 z m 4.233333,0 h 2.116667 v 3.175 h -2.116667 z" /><path
       id="rect1-7"
       style="fill:#ffffff;fill-opacity:1;stroke:none;stroke-width:2.11667;stroke-linecap:round"
       d="M 33.866666,0 V 33.866666 H 67.733332 V 0 Z m 1.058333,2.116667 h 2.116667 v 3.175 h -2.116667 z m 4.233334,0 h 2.116666 v 3.175 h -2.116666 z m 4.233333,0 h 2.116667 v 3.175 h -2.116667 z m 4.233333,0 h 2.116667 v 3.175 h -2.116667 z m 4.233333,0 h 2.116667 v 3.175 h -2.116667 z m 4.233334,0 h 2.116666 v 3.175 h -2.116666 z m 4.233333,0 h 2.116667 v 3.175 h -2.116667 z m 4.233333,0 h 2.116667 v 3.175 H 64.558332 Z M 34.924999,7.408333 h 31.75 v 19.05 h -31.75 z m 0,21.166667 h 2.116667 v 3.175 h -2.116667 z m 4.233334,0 h 2.116666 v 3.175 h -2.116666 z m 4.233333,0 h 2.116667 v 3.175 h -2.116667 z m 4.233333,0 h 2.116667 v 3.175 h -2.116667 z m 4.233333,0 h 2.116667 v 3.175 h -2.116667 z m 4.233334,0 h 2.116666 v 3.175 h -2.116666 z m 4.233333,0 h 2.116667 v 3.175 h -2.116667 z m 4.233333,0 h 2.116667 v 3.175 h -2.116667 z" /><path
       id="rect1-9"
       style="fill:#ffffff;fill-opacity:1;stroke:none;stroke-width:2.11667;stroke-linecap:round"
       d="M 67.733332,0 V 33.866666 H 101.6 V 0 Z m 1.058333,2.116667 h 2.116667 v 3.175 h -2.116667 z m 4.233334,0 h 2.116666 v 3.175 h -2.116666 z m 4.233333,0 h 2.116667 v 3.175 h -2.116667 z m 4.233333,0 h 2.116667 v 3.175 h -2.116667 z m 4.233333,0 h 2.116667 v 3.175 h -2.116667 z m 4.233334,0 h 2.116666 v 3.175 h -2.116666 z m 4.233333,0 h 2.116667 v 3.175 h -2.116667 z m 4.233333,0 h 2.116672 v 3.175 H 98.424998 Z M 68.791665,7.408333 h 31.749995 v 19.05 H 68.791665 Z m 0,21.166667 h 2.116667 v 3.175 h -2.116667 z m 4.233334,0 h 2.116666 v 3.175 h -2.116666 z m 4.233333,0 h 2.116667 v 3.175 h -2.116667 z m 4.233333,0 h 2.116667 v 3.175 h -2.116667 z m 4.233333,0 h 2.116667 v 3.175 h -2.116667 z m 4.233334,0 h 2.116666 v 3.175 h -2.116666 z m 4.233333,0 h 2.116667 v 3.175 h -2.116667 z m 4.233333,0 h 2.116672 v 3.175 h -2.116672 z" /><path
       id="rect1-7-3"
       style="fill:#ffffff;fill-opacity:1;stroke:none;stroke-width:2.11667;stroke-linecap:round"
       d="m 101.6,0 v 33.866666 h 33.86666 V 0 Z m 1.05833,2.116667 h 2.11667 v 3.175 h -2.11667 z m 4.23334,0 h 2.11666 v 3.175 h -2.11666 z m 4.23333,0 h 2.11667 v 3.175 H 111.125 Z m 4.23333,0 h 2.11667 v 3.175 h -2.11667 z m 4.23333,0 h 2.11667 v 3.175 h -2.11667 z m 4.23334,0 h 2.11666 v 3.175 H 123.825 Z m 4.23333,0 h 2.11667 v 3.175 h -2.11667 z m 4.23333,0 h 2.11667 v 3.175 h -2.11667 z m -29.63333,5.291666 h 31.75 v 19.05 h -31.75 z m 0,21.166667 h 2.11667 v 3.175 h -2.11667 z m 4.23334,0 h 2.11666 v 3.175 h -2.11666 z m 4.23333,0 h 2.11667 V 31.75 H 111.125 Z m 4.23333,0 h 2.11667 v 3.175 h -2.11667 z m 4.23333,0 h 2.11667 v 3.175 h -2.11667 z m 4.23334,0 h 2.11666 V 31.75 H 123.825 Z m 4.23333,0 h 2.11667 v 3.175 h -2.11667 z m 4.23333,0 h 2.11667 v 3.175 h -2.11667 z" /></g></svg>
